<?xml version="1.0" encoding="UTF-8"?>
<svg version="1.1" xmlns="http://www.w3.org/2000/svg" width="381" height="520">
<path d="M0 0 C1.04618678 0.00436926 1.04618678 0.00436926 2.11350864 0.00882679 C2.84940249 0.00797237 3.58529634 0.00711794 4.34349 0.00623763 C6.82792449 0.00458063 9.31229258 0.01010775 11.79672092 0.01555592 C13.57024487 0.01583777 15.34376894 0.0156801 17.11729282 0.01511341 C21.9476682 0.01482535 26.77801897 0.02072341 31.6083886 0.02768737 C36.6506112 0.03391955 41.6928343 0.0345246 46.73506016 0.03571278 C56.2902603 0.0388265 65.84544906 0.04704043 75.40064418 0.05706227 C86.27591236 0.06822215 97.15118108 0.07373354 108.02645355 0.0787577 C130.40422803 0.08922301 152.7819924 0.10682324 175.15975803 0.12908131 C173.83775442 4.22353477 172.37611705 7.80376929 170.22616428 11.53533131 C169.65962131 12.52662037 169.09307834 13.51790943 168.50936741 14.53923756 C167.91962131 15.558886 167.32987522 16.57853443 166.72225803 17.62908131 C165.55556284 19.65956733 164.39015862 21.69079579 163.22616428 23.72283131 C162.70997532 24.61679615 162.19378635 25.510761 161.6619553 26.43181568 C160.07357561 29.28382588 158.61968352 32.20923033 157.15975803 35.12908131 C144.28975803 35.12908131 131.41975803 35.12908131 118.15975803 35.12908131 C120.18754488 38.50872605 122.15723342 41.54634098 124.47225803 44.69158131 C131.42375401 54.59086356 138.15975803 66.80272874 138.15975803 79.12908131 C195.90975803 79.12908131 253.65975803 79.12908131 313.15975803 79.12908131 C303.95705533 97.53448671 303.95705533 97.53448671 299.65975803 105.12908131 C298.99846897 106.3085735 298.99846897 106.3085735 298.32382053 107.51189381 C297.27241667 109.38613547 296.21662166 111.25791292 295.15975803 113.12908131 C277.93790728 113.26048052 260.71604948 113.39091168 243.494183 113.52023274 C235.49533476 113.58031891 227.496489 113.64070582 219.49764866 113.70183522 C212.5148217 113.75519915 205.53199049 113.8079637 198.54915386 113.86004835 C194.86185549 113.88757162 191.17455969 113.91536785 187.48726887 113.94388539 C171.04456466 114.07085179 154.60304169 114.16327003 138.15975803 114.12908131 C138.01353 115.37923023 137.86730198 116.62937916 137.7166428 117.91741139 C135.48654006 136.98325392 122.20372457 154.71830965 107.84725803 166.87908131 C89.67344731 180.94829558 66.80824007 192.55444257 43.22225803 192.19158131 C42.45010959 192.18255787 41.67796116 192.17353443 40.88241428 192.16423756 C40.02969944 192.14683522 40.02969944 192.14683522 39.15975803 192.12908131 C40.57895635 196.58941889 43.02592446 199.45757309 46.22225803 202.75408131 C49.87738172 206.62481118 53.38483883 210.53768634 56.72225803 214.69158131 C59.7533337 218.4574632 62.8855738 222.07237887 66.15975803 225.62908131 C69.43394226 229.18578375 72.56618236 232.80069942 75.59725803 236.56658131 C78.8191912 240.56132385 82.16633415 244.3746024 85.65975803 248.12908131 C89.96972241 252.76156511 94.01036971 257.55030364 97.98007053 262.48064381 C100.13733202 265.1018325 102.37286804 267.62062412 104.65975803 270.12908131 C107.75530999 273.52506812 110.7112701 276.99079662 113.59725803 280.56658131 C116.67312391 284.36995634 119.84728969 288.02990783 123.15975803 291.62908131 C127.23906863 296.06256461 131.09317962 300.62653777 134.85897678 305.32830006 C135.61823459 306.25255787 136.37749241 307.17681568 137.15975803 308.12908131 C137.57570728 308.78564717 137.99165653 309.44221302 138.4202103 310.11867481 C140.92219099 313.65753411 142.82954107 315.79975718 147.12415928 316.86298329 C150.84599669 317.13255629 154.52658823 317.15603131 158.25350803 317.09392506 C159.66673756 317.09992884 161.07995508 317.10986489 162.49313205 317.12345082 C165.49676575 317.14699974 168.49933063 317.14895906 171.50301975 317.13512379 C176.14665495 317.11944818 180.78658846 317.18630508 185.42928928 317.27410084 C186.99113735 317.30308966 188.55298631 317.33203035 190.11483616 317.36092335 C190.89036838 317.37529061 191.66590061 317.38965786 192.46493381 317.40446049 C196.37997562 317.47277934 200.29521931 317.52307224 204.21053928 317.57244068 C204.98463138 317.58223768 205.75872349 317.59203469 206.55627292 317.60212857 C208.12748986 317.62192779 209.69870773 317.64165393 211.26992649 317.66130787 C215.34130498 317.71288248 219.41263802 317.76783516 223.48397678 317.82244068 C231.3758647 317.92782163 239.26779217 318.02968884 247.15975803 318.12908131 C247.67925022 319.19126881 248.19874241 320.25345631 248.73397678 321.34783131 C249.43818342 322.77502343 250.14262306 324.20210061 250.84725803 325.62908131 C251.186926 326.32517506 251.52659397 327.02126881 251.87655491 327.73845631 C252.22137913 328.43455006 252.56620334 329.13064381 252.92147678 329.84783131 C253.23044895 330.47624928 253.53942112 331.10466725 253.85775608 331.75212818 C255.80459941 335.30631282 257.98892684 338.70838157 260.15975803 342.12908131 C241.70527156 342.40993194 223.25122115 342.62126812 204.79503769 342.75082737 C196.22455775 342.81259529 187.65540875 342.8967357 179.08578342 343.03435475 C171.61266093 343.15430748 164.14050254 343.23145926 156.66644406 343.25814325 C152.71168303 343.27373324 148.75967886 343.31011459 144.80580562 343.39784199 C117.48266335 343.98081376 117.48266335 343.98081376 111.25768608 338.02231938 C109.22551572 335.55934453 107.69025505 332.92531546 106.15975803 330.12908131 C104.6912196 328.27045117 103.19512203 326.43290183 101.65975803 324.62908131 C100.93788303 323.73189381 100.21600803 322.83470631 99.47225803 321.91033131 C96.9600467 318.88888795 94.33573346 316.00468053 91.65975803 313.12908131 C87.37018043 308.51906492 83.35564906 303.75124895 79.40585178 298.84392506 C77.07145214 296.02234636 74.63985205 293.32317419 72.15975803 290.62908131 C68.06624712 286.18181019 64.23533305 281.58190668 60.44100803 276.87908131 C58.09256835 274.04808552 55.65065901 271.33524533 53.15975803 268.62908131 C49.06624712 264.18181019 45.23533305 259.58190668 41.44100803 254.87908131 C39.09256835 252.04808552 36.65065901 249.33524533 34.15975803 246.62908131 C30.06624712 242.18181019 26.23533305 237.58190668 22.44100803 232.87908131 C19.29545844 229.08718591 15.95330241 225.49088757 12.61678928 221.86736256 C9.47291315 218.36361507 6.54461427 214.72339526 3.67538303 210.99236256 C1.68216944 208.72368932 0.07886352 207.24178173 -2.29336697 205.48455006 C-7.79584699 201.10912872 -11.34092594 197.46857458 -12.41641384 190.27556568 C-13.12873993 180.58145833 -12.551474 170.80688706 -11.84024197 161.12908131 C-11.24936795 161.12321507 -10.65849392 161.11734883 -10.04971462 161.11130482 C-3.81846446 161.04664499 2.41230324 160.96205369 8.64315647 160.86663014 C10.95884637 160.83367287 13.27461098 160.80555337 15.59042209 160.78264576 C40.77491629 160.52688275 65.69626587 158.37910842 84.56991428 139.75017506 C91.07684883 132.17294099 94.04142221 123.48408876 97.15975803 114.12908131 C57.55975803 114.12908131 17.95975803 114.12908131 -22.84024197 114.12908131 C-20.57187221 108.45815691 -17.77318363 103.23044568 -14.87271267 97.86321217 C-13.90497617 96.07071962 -12.94365727 94.27488897 -11.98282009 92.47869068 C-11.36987087 91.34109303 -10.75692166 90.20349537 -10.12539822 89.03142506 C-9.28827297 87.47669483 -9.28827297 87.47669483 -8.43423611 85.89055592 C-7.90821804 84.9792693 -7.38219998 84.06798268 -6.84024197 83.12908131 C-6.34296093 82.06769696 -6.34296093 82.06769696 -5.83563381 80.98487049 C-2.51508558 77.89663621 1.31705954 78.60709592 5.6800217 78.67497975 C7.14371441 78.67410359 7.14371441 78.67410359 8.63697666 78.67320973 C11.86758653 78.67600009 15.09727778 78.70713771 18.32772678 78.73845631 C20.56545867 78.74591529 22.80319709 78.75160984 25.04093784 78.75560719 C30.9347925 78.77089038 36.82825378 78.81019571 42.72195286 78.85442311 C48.73437023 78.89531771 54.74685108 78.9136058 60.75936741 78.93376881 C72.55967059 78.97668705 84.35968162 79.04497113 96.15975803 79.12908131 C95.40979751 77.08061663 94.6500368 75.03573864 93.88632053 72.99236256 C93.4643137 71.85323414 93.04230686 70.71410572 92.60751194 69.54045826 C86.42938799 54.98279789 74.6164029 47.90378323 60.83553928 41.67205006 C49.16409756 37.37398782 36.68289121 36.67332838 24.37850803 36.61736256 C22.94404487 36.60045118 21.50959594 36.58229272 20.0751633 36.56296498 C16.36001905 36.5161576 12.64493236 36.48590627 8.92959446 36.45952564 C5.11427266 36.42936338 1.29914863 36.38295927 -2.51602322 36.33806568 C-9.95732978 36.25282455 -17.39865207 36.18513477 -24.84024197 36.12908131 C-20.43280222 27.16968414 -15.98111394 18.29519584 -10.90274197 9.69158131 C-10.42256619 8.86593678 -9.94239041 8.04029225 -9.44766384 7.18962818 C-5.25504007 0.01663434 -5.25504007 0.01663434 0 0 Z " fill="#1E4B81" transform="translate(36.840241968631744,135.8709186911583)"/>
<path d="M0 0 C55.11 0 110.22 0 167 0 C161.46626507 11.06746985 155.78955257 22.06417849 150 33 C94.89 33 39.78 33 -17 33 C-11.46626507 21.93253015 -5.78955257 10.93582151 0 0 Z " fill="#7DBA6B" transform="translate(182,272)"/>
<path d="M0 0 C5.01989007 4.52173304 8.51583791 9.90347409 12.25 15.5 C13.58286748 17.47948042 14.9161992 19.45864834 16.25 21.4375 C16.89195312 22.39269531 17.53390625 23.34789063 18.1953125 24.33203125 C21.15808969 28.71206765 24.20787284 33.02971206 27.265625 37.34375 C29 40 29 40 32 46 C26.06 46 20.12 46 14 46 C14.00222061 47.78929428 14.00444122 49.57858856 14.00672913 51.42210388 C14.02695576 68.24234762 14.04202979 85.0625889 14.05181217 101.88284206 C14.05697536 110.53135605 14.06401848 119.17986097 14.07543945 127.82836914 C14.08538561 135.36364579 14.09185326 142.89891588 14.09408849 150.43419892 C14.09539572 154.42655852 14.0984823 158.41889936 14.10573006 162.41125298 C14.1124892 166.16467098 14.11461718 169.91806239 14.11310768 173.6714859 C14.11338406 175.05302894 14.11538981 176.43457281 14.11920547 177.81611061 C14.12414099 179.69437145 14.12239796 181.57264638 14.12025452 183.45091248 C14.12117631 184.50452186 14.1220981 185.55813124 14.12304783 186.64366817 C14 189 14 189 13 190 C4.75 190 -3.5 190 -12 190 C-12.33 142.81 -12.66 95.62 -13 47 C-18.61 46.67 -24.22 46.34 -30 46 C-28.51417498 42.28543744 -27.46698917 39.98381549 -25.234375 36.875 C-24.68023926 36.09543945 -24.12610352 35.31587891 -23.55517578 34.51269531 C-22.95946777 33.68350586 -22.36375977 32.85431641 -21.75 32 C-14.27955711 21.47730827 -7.10877183 10.76928318 0 0 Z " fill="#89C571" transform="translate(326,8)"/>
<path d="M0 0 C3.64757483 1.32639085 5.87436536 3.13047213 8.77734375 5.703125 C12.95583982 9.36847243 17.19985675 12.85958217 21.6027832 16.25341797 C23.93914305 18.05827104 26.25659278 19.8849949 28.5703125 21.71875 C29.32634766 22.31429688 30.08238281 22.90984375 30.86132812 23.5234375 C32.40350371 24.73824589 33.94251667 25.95707876 35.47851562 27.1796875 C39.49603558 30.33311362 43.28424627 33.0177663 47.96484375 35.078125 C47.94164062 33.87414062 47.9184375 32.67015625 47.89453125 31.4296875 C47.87577512 29.85417285 47.85757476 28.27865152 47.83984375 26.703125 C47.82308594 25.9090625 47.80632812 25.115 47.7890625 24.296875 C47.77148902 22.22320485 47.86149207 20.14929259 47.96484375 18.078125 C50.58443999 15.45852876 52.51338168 15.78956273 56.0859375 15.75585938 C56.87097656 15.75908203 57.65601563 15.76230469 58.46484375 15.765625 C59.24988281 15.74951172 60.03492188 15.73339844 60.84375 15.71679688 C63.12109375 15.71484375 63.12109375 15.71484375 66.96484375 16.078125 C69.45993288 19.8207587 69.0797892 22.52356268 68.88671875 26.82421875 C67.43941386 44.2536436 67.43941386 44.2536436 72.96484375 59.953125 C76.27227985 63.02261288 79.98845742 64.98831307 83.96484375 67.078125 C88.66394496 71.28826568 88.66394496 71.28826568 89.96484375 74.703125 C89.96484375 77.078125 89.96484375 77.078125 88.46484375 78.7265625 C87.72234375 79.39558594 87.72234375 79.39558594 86.96484375 80.078125 C85.93359375 79.624375 84.90234375 79.170625 83.83984375 78.703125 C79.97572474 77.18048616 76.65719767 76.96092374 72.52734375 76.765625 C62.87787507 75.55685858 56.94615336 69.15371683 49.96191406 62.84521484 C47.17428457 60.37860576 44.25242346 58.12445604 41.27734375 55.890625 C36.83296164 52.50758787 32.41539567 49.0961095 28.02734375 45.640625 C27.45226074 45.1878418 26.87717773 44.73505859 26.28466797 44.26855469 C25.11315591 43.34586224 23.94177027 42.42300926 22.77050781 41.5 C20.89652407 40.02432649 19.02079347 38.55090023 17.14453125 37.078125 C16.51796631 36.58626709 15.89140137 36.09440918 15.24584961 35.58764648 C14.05403698 34.65215801 12.86214772 33.71676717 11.67016602 32.78149414 C9.18862956 30.83268783 6.76507303 28.89502757 4.4375 26.76171875 C1.25588755 24.59540759 -0.25379795 24.39805928 -4.03515625 25.078125 C-6.2732235 26.61679623 -8.07431856 28.0572816 -10.03515625 29.890625 C-11.17630056 30.90729288 -12.31960287 31.92154275 -13.46484375 32.93359375 C-14.05104492 33.45614746 -14.63724609 33.97870117 -15.24121094 34.51708984 C-18.12533121 37.02676119 -21.13768172 39.36353353 -24.16015625 41.703125 C-28.32718053 44.94648933 -32.45955391 48.21963744 -36.53515625 51.578125 C-41.24369484 55.45574501 -46.02765837 59.22702385 -50.83276367 62.98339844 C-55.43862215 66.59112049 -59.96966772 70.28350721 -64.48828125 74 C-77.61077389 84.70730995 -77.61077389 84.70730995 -85.03515625 84.078125 C-87.78844646 82.28250095 -89.56143086 81.02557578 -91.03515625 78.078125 C-91.41015625 75.265625 -91.41015625 75.265625 -91.03515625 72.078125 C-89.41861232 70.09655502 -87.97015848 68.70279669 -86.03515625 67.078125 C-85.42671875 66.51609375 -84.81828125 65.9540625 -84.19140625 65.375 C-79.22331947 60.81474124 -74.00014872 56.63471117 -68.68188477 52.49755859 C-64.08326643 48.91712286 -59.54870316 45.26508677 -55.03515625 41.578125 C-49.51199279 37.07024407 -43.94330588 32.62969389 -38.32421875 28.2421875 C-33.85074787 24.74033021 -29.4380156 21.16818126 -25.03515625 17.578125 C-23.69402522 16.49216922 -22.35287946 15.40623163 -21.01171875 14.3203125 C-18.35626205 12.16657204 -15.73132975 9.98169453 -13.12109375 7.7734375 C-11.88439807 6.74965746 -10.64743113 5.72620498 -9.41015625 4.703125 C-8.85457031 4.22037109 -8.29898438 3.73761719 -7.7265625 3.24023438 C-5.0681585 1.07017466 -3.46867762 0.08928385 0 0 Z " fill="#86BF6B" transform="translate(254.03515625,321.921875)"/>
<path d="M0 0 C6.62835334 6.04312444 11.28856283 13.96771721 12.203125 23.0078125 C12.70540981 45.69434289 -5.8369362 65.96897307 -20 82 C-34.17495794 75.93854805 -45.71143311 53.86966076 -51.73046875 40.4296875 C-55.43302577 30.42708729 -56.03780695 21.98745431 -52 12 C-47.83527199 3.81737734 -41.45014399 -2.41835281 -32.875 -5.875 C-20.99806041 -9.62438681 -9.82997043 -7.6833911 0 0 Z M-37.3125 14 C-40.25909453 19.23839027 -40.96991323 24.2407501 -39.43359375 30.1953125 C-38.63372911 32.6574047 -38.63372911 32.6574047 -37 36 C-36.01 36.33 -35.02 36.66 -34 37 C-34 37.66 -34 38.32 -34 39 C-28.68531317 42.69075474 -24.43934905 43.43656604 -18 43 C-12.22115317 41.10692949 -8.13050469 38.43870932 -4.88671875 33.203125 C-2.88189013 28.22196491 -3.15725079 21.95495607 -4.6171875 16.8359375 C-7.04583823 11.95714356 -10.95486328 8.79559197 -16 7 C-25.15951743 5.72504886 -31.46018757 6.4078109 -37.3125 14 Z " fill="#236A9A" transform="translate(345,414)"/>
<path d="M0 0 C8.58 0 17.16 0 26 0 C26 30.36 26 60.72 26 92 C17.42 92 8.84 92 0 92 C0 61.64 0 31.28 0 0 Z " fill="#1E588F" transform="translate(275,106)"/>
<path d="M0 0 C8.58 0 17.16 0 26 0 C26 19.47 26 38.94 26 59 C17.42 59 8.84 59 0 59 C0 39.53 0 20.06 0 0 Z " fill="#1C4E85" transform="translate(237,139)"/>
<path d="M0 0 C4.01201838 2.29419642 7.53897738 5.08433738 11.1484375 7.9609375 C12.34001465 8.89933472 12.34001465 8.89933472 13.55566406 9.85668945 C15.96730443 11.75936098 18.37165622 13.67084088 20.7734375 15.5859375 C21.80162598 16.40505615 21.80162598 16.40505615 22.85058594 17.24072266 C25.35188755 19.23561423 27.85120641 21.23287683 30.34448242 23.23779297 C33.43858687 25.72561172 36.5443588 28.19597101 39.67578125 30.63671875 C40.3109668 31.13212158 40.94615234 31.62752441 41.60058594 32.13793945 C42.80121434 33.07244432 44.00356759 34.00473934 45.20800781 34.93432617 C48.26813656 37.31690706 51.09954489 39.77542264 53.7734375 42.5859375 C51.6875 43.88671875 51.6875 43.88671875 48.7734375 44.5859375 C46.25790171 43.07972162 44.33410403 41.67170699 42.1484375 39.7734375 C41.53162109 39.26296875 40.91480469 38.7525 40.27929688 38.2265625 C39.02202192 37.18381739 37.77098162 36.13350806 36.52636719 35.07568359 C34.13659099 33.04470667 31.70501635 31.06655588 29.2734375 29.0859375 C28.40074219 28.36792969 27.52804687 27.64992188 26.62890625 26.91015625 C21.58398986 22.80382896 16.46271469 18.79670661 11.32714844 14.8046875 C9.966066 13.73703767 8.62214684 12.64758148 7.28125 11.5546875 C6.59804688 11.008125 5.91484375 10.4615625 5.2109375 9.8984375 C4.37369141 9.21201172 4.37369141 9.21201172 3.51953125 8.51171875 C1.07198671 7.21402735 -0.49029747 7.21053529 -3.2265625 7.5859375 C-5.50692021 8.931589 -5.50692021 8.931589 -7.6640625 10.8984375 C-8.53546875 11.63191406 -9.406875 12.36539062 -10.3046875 13.12109375 C-11.75101563 14.34119141 -11.75101563 14.34119141 -13.2265625 15.5859375 C-15.44112756 17.35472236 -17.6778814 19.09460546 -19.9140625 20.8359375 C-24.87590354 24.7225661 -29.80981331 28.64245447 -34.7265625 32.5859375 C-39.77057708 36.63050457 -44.83060739 40.65352816 -49.9140625 44.6484375 C-50.49027344 45.10154297 -51.06648438 45.55464844 -51.66015625 46.02148438 C-56.15266153 49.54596173 -56.15266153 49.54596173 -58.37353516 50.74731445 C-60.72223004 53.07775202 -60.72796889 54.85625018 -60.80656433 58.08401489 C-60.80465591 58.80910248 -60.8027475 59.53419006 -60.80078125 60.28125 C-60.81494583 61.02929901 -60.82911041 61.77734802 -60.84370422 62.54806519 C-60.88562801 64.93583581 -60.9008514 67.32285046 -60.9140625 69.7109375 C-60.94308114 72.10581463 -60.97756984 74.50049822 -61.01655579 76.89523315 C-61.03911149 78.3853176 -61.05488919 79.87552233 -61.06340027 81.36575317 C-61.11698171 86.47635671 -61.11698171 86.47635671 -62.2265625 87.5859375 C-64.7265625 87.7109375 -64.7265625 87.7109375 -67.2265625 87.5859375 C-69.19925729 85.61324271 -68.41748459 81.80712706 -68.421875 79.11328125 C-68.41476823 76.74071047 -68.39749901 74.36875346 -68.36914062 71.99633789 C-68.35751117 70.36029982 -68.36342332 68.72403411 -68.38769531 67.08813477 C-68.57963446 53.57424785 -68.57963446 53.57424785 -65.36279297 48.84716797 C-63.09023206 46.80764126 -60.82226101 45.18655517 -58.2265625 43.5859375 C-57.15145092 42.7496886 -56.08480567 41.90231077 -55.03125 41.0390625 C-54.06445312 40.31203125 -53.09765625 39.585 -52.1015625 38.8359375 C-47.27407943 35.17492259 -42.51127653 31.44428418 -37.7890625 27.6484375 C-32.27569624 23.21898042 -26.73397898 18.82857013 -21.16674805 14.46704102 C-16.85762281 11.08885002 -12.57678004 7.6768977 -8.3125 4.2421875 C-7.62414062 3.695625 -6.93578125 3.1490625 -6.2265625 2.5859375 C-5.57945312 1.9775 -4.93234375 1.3690625 -4.265625 0.7421875 C-2.2265625 -0.4140625 -2.2265625 -0.4140625 0 0 Z " fill="#77B164" transform="translate(254.2265625,357.4140625)"/>
<path d="M0 0 C8.58 0 17.16 0 26 0 C26 8.25 26 16.5 26 25 C17.42 25 8.84 25 0 25 C0 16.75 0 8.5 0 0 Z " fill="#1A447A" transform="translate(199,173)"/>
<path d="M0 0 C1.77074917 -0.02705729 3.54161711 -0.04642195 5.3125 -0.0625 C6.29863281 -0.07410156 7.28476562 -0.08570313 8.30078125 -0.09765625 C11 0 11 0 14 1 C14.02685412 3.31243792 14.04632841 5.6249627 14.0625 7.9375 C14.07410156 9.22527344 14.08570313 10.51304687 14.09765625 11.83984375 C14 15 14 15 13 16 C10.81360547 16.07258946 8.62499611 16.08373783 6.4375 16.0625 C4.64119141 16.04896484 4.64119141 16.04896484 2.80859375 16.03515625 C1.88175781 16.02355469 0.95492188 16.01195312 0 16 C-1.03354508 12.89936477 -1.13364996 10.68555932 -1.125 7.4375 C-1.12757813 6.46683594 -1.13015625 5.49617188 -1.1328125 4.49609375 C-1 2 -1 2 0 0 Z " fill="#72A963" transform="translate(257,418)"/>
<path d="M0 0 C4.62 0 9.24 0 14 0 C14 4.62 14 9.24 14 14 C11.39820337 15.30089831 9.4030812 15.16840078 6.5 15.1875 C5.5203125 15.20167969 4.540625 15.21585937 3.53125 15.23046875 C1 15 1 15 -1 13 C-0.96631321 8.63194681 -0.42669049 4.35224295 0 0 Z " fill="#82BB6C" transform="translate(257,398)"/>
<path d="M0 0 C4.62 0 9.24 0 14 0 C14 4.95 14 9.9 14 15 C3.94140625 15.09765625 3.94140625 15.09765625 1 15 C0 14 0 14 -0.09765625 10.83984375 C-0.04882812 5.41992188 -0.04882812 5.41992188 0 0 Z " fill="#69A45B" transform="translate(236,419)"/>
<path d="M0 0 C4.62 0 9.24 0 14 0 C14.09765625 10.83984375 14.09765625 10.83984375 14 14 C13 15 13 15 11.07421875 15.1328125 C10.28660156 15.13023437 9.49898437 15.12765625 8.6875 15.125 C7.90761719 15.12757813 7.12773437 15.13015625 6.32421875 15.1328125 C4 15 4 15 0 14 C0 9.38 0 4.76 0 0 Z " fill="#79B165" transform="translate(236,398)"/>
<path d="" fill="#EFEFEF" transform="translate(0,0)"/>
</svg>
